# xmcd
#
# Track frame offsets:
#	150
#	10536
#	21926
#	41585
#	62435
#	83556
#	98206
#	112361
#	133810
#	150661
#
# Disc length: 2179 seconds
#
# Revision: 1
# Processed by: cddbd v1.5.2PL0 Copyright (c) Steve Scherf et al.
# Submitted via: audiograbber 1.83.01
#
DISCID=7708810a
DTITLE=Greg McCool - Covered in Blood
DYEAR=1900
DGENRE=Christian
TTITLE0=The Bug Song
TTITLE1=Covered in Blood
TTITLE2=There Goes Me
TTITLE3=Promises
TTITLE4=Precious Times
TTITLE5=Old Time Revival
TTITLE6=Heading Toward Glory
TTITLE7=The Best of Me
TTITLE8=Do You Know
TTITLE9=Church Going Memories
EXTD=
EXTT0=
EXTT1=
EXTT2=
EXTT3=
EXTT4=
EXTT5=
EXTT6=
EXTT7=
EXTT8=
EXTT9=
PLAYORDER=
